{
  "accessors": [
    {
      "bufferView": 2,
      "componentType": 5126,
      "count": 986,
      "max": [
        1.8141610622406006,
        1.8141610622406006,
        31.61280059814453
      ],
      "min": [
        -1.8141610622406006,
        -1.8141610622406006,
        -1.0
      ],
      "type": "VEC3"
    },
    {
      "bufferView": 2,
      "byteOffset": 11832,
      "componentType": 5126,
      "count": 986,
      "max": [
        1.0,
        1.0,
        1.0
      ],
      "min": [
        -1.0,
        -1.0,
        -1.0
      ],
      "type": "VEC3"
    },
    {
      "bufferView": 1,
      "componentType": 5126,
      "count": 986,
      "max": [
        0.22438880801200867,
        0.0340275913476944
      ],
      "min": [
        0.22438864409923553,
        0.034027472138404846
      ],
      "type": "VEC2"
    },
    {
      "bufferView": 0,
      "componentType": 5125,
      "count": 2958,
      "type": "SCALAR"
    },
    {
      "bufferView": 2,
      "byteOffset": 23664,
      "componentType": 5126,
      "count": 5022,
      "max": [
        13.924418449401855,
        1.0000001192092896,
        6.008781433105469
      ],
      "min": [
        -1.0,
        -1.0000001192092896,
        -63.43870162963867
      ],
      "type": "VEC3"
    },
    {
      "bufferView": 2,
      "byteOffset": 83928,
      "componentType": 5126,
      "count": 5022,
      "max": [
        1.0,
        1.0,
        1.0
      ],
      "min": [
        -1.0,
        -1.0,
        -1.0
      ],
      "type": "VEC3"
    },
    {
      "bufferView": 1,
      "byteOffset": 7888,
      "componentType": 5126,
      "count": 5022,
      "max": [
        0.9891815185546875,
        0.03524230420589447
      ],
      "min": [
        0.9891815185546875,
        0.03524230420589447
      ],
      "type": "VEC2"
    },
    {
      "bufferView": 0,
      "byteOffset": 11832,
      "componentType": 5125,
      "count": 15516,
      "type": "SCALAR"
    },
    {
      "bufferView": 2,
      "byteOffset": 144192,
      "componentType": 5126,
      "count": 480,
      "max": [
        1.0,
        1.0,
        1.0
      ],
      "min": [
        -1.0,
        -1.0,
        -58.90780258178711
      ],
      "type": "VEC3"
    },
    {
      "bufferView": 2,
      "byteOffset": 149952,
      "componentType": 5126,
      "count": 480,
      "max": [
        1.0,
        1.0,
        1.0
      ],
      "min": [
        -1.0,
        -1.0,
        -1.0
      ],
      "type": "VEC3"
    },
    {
      "bufferView": 1,
      "byteOffset": 48064,
      "componentType": 5126,
      "count": 480,
      "max": [
        0.04083094745874405,
        0.03125029057264328
      ],
      "min": [
        0.04082341492176056,
        0.031240276992321014
      ],
      "type": "VEC2"
    },
    {
      "bufferView": 0,
      "byteOffset": 73896,
      "componentType": 5125,
      "count": 1716,
      "type": "SCALAR"
    },
    {
      "bufferView": 2,
      "byteOffset": 155712,
      "componentType": 5126,
      "count": 44,
      "max": [
        2.868140459060669,
        49.11981964111328,
        2.8312292098999023
      ],
      "min": [
        1.3401873111724854,
        -0.8821219801902771,
        -0.7252171039581299
      ],
      "type": "VEC3"
    },
    {
      "bufferView": 2,
      "byteOffset": 156240,
      "componentType": 5126,
      "count": 44,
      "max": [
        0.9187930226325989,
        0.0,
        -0.3947398066520691
      ],
      "min": [
        0.9187917709350586,
        0.0,
        -0.3947426378726959
      ],
      "type": "VEC3"
    },
    {
      "bufferView": 1,
      "byteOffset": 51904,
      "componentType": 5126,
      "count": 44,
      "max": [
        0.04075795039534569,
        0.03376545011997223
      ],
      "min": [
        0.04075545817613602,
        0.03376294672489166
      ],
      "type": "VEC2"
    },
    {
      "bufferView": 0,
      "byteOffset": 80760,
      "componentType": 5125,
      "count": 72,
      "type": "SCALAR"
    }
  ],
  "asset": {
    "extras": {
      "author": "DARKLORD (https://sketchfab.com/DARK_2LORD2)",
      "license": "CC-BY-4.0 (http://creativecommons.org/licenses/by/4.0/)",
      "source": "https://sketchfab.com/3d-models/billboard-800c324581684cdbaa0a074ab3f01c0c",
      "title": "Billboard"
    },
    "generator": "Sketchfab-16.21.0",
    "version": "2.0"
  },
  "bufferViews": [
    {
      "buffer": 0,
      "byteLength": 81048,
      "name": "floatBufferViews",
      "target": 34963
    },
    {
      "buffer": 0,
      "byteLength": 52256,
      "byteOffset": 81048,
      "byteStride": 8,
      "name": "floatBufferViews",
      "target": 34962
    },
    {
      "buffer": 0,
      "byteLength": 156768,
      "byteOffset": 133304,
      "byteStride": 12,
      "name": "floatBufferViews",
      "target": 34962
    }
  ],
  "buffers": [
    {
      "byteLength": 290072,
      "uri": "scene.bin"
    }
  ],
  "images": [
    {
      "uri": "textures/Material.005_baseColor.png"
    }
  ],
  "materials": [
    {
      "doubleSided": true,
      "name": "Material.005",
      "pbrMetallicRoughness": {
        "baseColorTexture": {
          "index": 0
        },
        "metallicFactor": 0.25
      }
    },
    {
      "doubleSided": true,
      "name": "Material.002",
      "pbrMetallicRoughness": {
        "baseColorTexture": {
          "index": 0
        },
        "metallicFactor": 0.25
      }
    },
    {
      "doubleSided": true,
      "name": "Material.004",
      "pbrMetallicRoughness": {
        "baseColorTexture": {
          "index": 0
        },
        "metallicFactor": 0.0
      }
    },
    {
      "doubleSided": true,
      "name": "Material.006",
      "pbrMetallicRoughness": {
        "baseColorTexture": {
          "index": 0
        },
        "metallicFactor": 0.0
      }
    }
  ],
  "meshes": [
    {
      "name": "Cylinder_Material.005_0",
      "primitives": [
        {
          "attributes": {
            "NORMAL": 1,
            "POSITION": 0,
            "TEXCOORD_0": 2
          },
          "indices": 3,
          "material": 0,
          "mode": 4
        }
      ]
    },
    {
      "name": "Cube.001_Material.002_0",
      "primitives": [
        {
          "attributes": {
            "NORMAL": 5,
            "POSITION": 4,
            "TEXCOORD_0": 6
          },
          "indices": 7,
          "material": 1,
          "mode": 4
        }
      ]
    },
    {
      "name": "Cube.005_Material.004_0",
      "primitives": [
        {
          "attributes": {
            "NORMAL": 9,
            "POSITION": 8,
            "TEXCOORD_0": 10
          },
          "indices": 11,
          "material": 2,
          "mode": 4
        }
      ]
    },
    {
      "name": "Cube.009_Material.006_0",
      "primitives": [
        {
          "attributes": {
            "NORMAL": 13,
            "POSITION": 12,
            "TEXCOORD_0": 14
          },
          "indices": 15,
          "material": 3,
          "mode": 4
        }
      ]
    }
  ],
  "nodes": [
    {
      "children": [
        1
      ],
      "matrix": [
        1.0,
        0.0,
        0.0,
        0.0,
        0.0,
        2.220446049250313e-16,
        -1.0,
        0.0,
        0.0,
        1.0,
        2.220446049250313e-16,
        0.0,
        0.0,
        0.0,
        0.0,
        1.0
      ],
      "name": "Sketchfab_model"
    },
    {
      "children": [
        2
      ],
      "matrix": [
        0.009999999776482582,
        0.0,
        0.0,
        0.0,
        0.0,
        0.0,
        0.009999999776482582,
        0.0,
        0.0,
        -0.009999999776482582,
        0.0,
        0.0,
        0.0,
        0.0,
        0.0,
        1.0
      ],
      "name": "d3972b4ac467490784e288505f94e574.fbx"
    },
    {
      "children": [
        3,
        5,
        7,
        9
      ],
      "name": "RootNode"
    },
    {
      "children": [
        4
      ],
      "matrix": [
        100.0,
        0.0,
        0.0,
        0.0,
        0.0,
        -1.629206793918314e-05,
        -99.99999999999868,
        0.0,
        0.0,
        99.99999999999868,
        -1.629206793918314e-05,
        0.0,
        0.0,
        0.0,
        0.0,
        1.0
      ],
      "name": "Cylinder"
    },
    {
      "mesh": 0,
      "name": "Cylinder_Material.005_0"
    },
    {
      "children": [
        6
      ],
      "matrix": [
        32.31137084960925,
        2.8247498589690367e-06,
        -0.0,
        -0.0,
        2.3395996349010358e-11,
        -0.0002676189939301074,
        -1642.6336669921654,
        -0.0,
        1.975067531076353e-06,
        -22.592138290404886,
        3.6807265292199607e-06,
        -0.0,
        136.12057495117188,
        2370.900634765625,
        0.0,
        1.0
      ],
      "name": "Cube.001"
    },
    {
      "mesh": 1,
      "name": "Cube.001_Material.002_0"
    },
    {
      "children": [
        8
      ],
      "matrix": [
        10.314103126525838,
        9.016875665118461e-07,
        -0.0,
        -0.0,
        2.2928201778324715e-11,
        -0.00026226804796032166,
        -1609.7897949218534,
        -0.0,
        1.975067531076353e-06,
        -22.592138290404886,
        3.6807265292199607e-06,
        -0.0,
        136.12057495117188,
        2370.900634765625,
        0.0,
        1.0
      ],
      "name": "Cube.005"
    },
    {
      "mesh": 2,
      "name": "Cube.005_Material.004_0"
    },
    {
      "children": [
        10
      ],
      "matrix": [
        49.75361633300781,
        0.0,
        0.0,
        0.0,
        0.0,
        -8.105892975174153e-06,
        -49.75361633300715,
        0.0,
        0.0,
        12.338857650756673,
        -2.0102550713804006e-06,
        0.0,
        146.51846313476563,
        3750.10302734375,
        1200.0,
        1.0
      ],
      "name": "Cube.009"
    },
    {
      "mesh": 3,
      "name": "Cube.009_Material.006_0"
    }
  ],
  "samplers": [
    {
      "magFilter": 9729,
      "minFilter": 9987,
      "wrapS": 10497,
      "wrapT": 10497
    }
  ],
  "scene": 0,
  "scenes": [
    {
      "name": "Sketchfab_Scene",
      "nodes": [
        0
      ]
    }
  ],
  "textures": [
    {
      "sampler": 0,
      "source": 0
    }
  ]
}
